<?xml version="1.0" encoding="utf-8"?>
<!-- Generator: Adobe Illustrator 30.0.0, SVG Export Plug-In . SVG Version: 9.03 Build 0)  -->
<svg version="1.0" id="Layer_1" xmlns="http://www.w3.org/2000/svg" xmlns:xlink="http://www.w3.org/1999/xlink" x="0px" y="0px"
	 viewBox="0 0 777 301" style="enable-background:new 0 0 777 301;" xml:space="preserve">
<style type="text/css">
	.st0{fill:#FFFFFF;}
</style>
<g>
	<path class="st0" d="M43.3,236.6c3.3-9.7,19.5-56.1,26.1-74.7l-7.1-4.8c-1.3-0.8-0.6-2.3,0.7-2.3h32.2L100,171
		c2.8,8.7,5.7,18.4,7,22.7c0,1.9-0.6,10.5-0.6,12.4c3.5-3.9,15.2-16.1,26.1-27.7c6.4-6.7,13.2-14,20.7-22c0.9-1,2.2-1.6,3.7-1.6
		h23.9c-1.2,4.2-25.8,74.5-27.1,78.3c-0.8,2.3-2.5,3.5-4.9,3.5h-23.7l11.2-32.6l-22.9,22.3c-1.1,0.9-2.2,1.4-3.6,1.4H90.2l-8-23.6
		l-10.1,29c-0.8,2.3-2.5,3.5-4.9,3.5H43.3z"/>
	<path class="st0" d="M199.2,161.9c-2.3-1.8-4.6-3.3-7.2-4.7c-1.3-0.8-0.7-2.5,0.6-2.5H229l-27.1,78.3c-0.8,2.3-2.5,3.5-4.9,3.5
		h-23.7C177.9,222.7,193.1,180.5,199.2,161.9z"/>
	<path class="st0" d="M222,236.6l6.9-16.6c0.8-2,2.6-3.3,4.8-3.3l56.9,0.1c1.3,0,2-0.5,2.3-1.5l3.2-9.1c0.4-0.9,0-1.4-1.3-1.4h-39.8
		c-12.2,0-20.7-7.5-16.6-18.7l4.3-12.7c3.4-10.2,13.7-18.6,26.8-18.6h67.3c-2,6-3.4,10.2-5.3,16.1c-0.8,2.5-2.5,3.6-4.9,3.6h-64.7
		c-1.3,0-1.8,1.5-0.8,2.3l6,5.4l-0.9,2.9c-0.4,0.9,0.1,1.4,1.3,1.4h39.9c12,0,20.6,7.5,16.5,18.7l-4.3,12.7
		c-3.7,9.9-12.5,18.6-26,18.6H222z"/>
	<path class="st0" d="M329.9,236.6l6.9-16.6c0.8-2,2.6-3.3,4.8-3.3l56.9,0.1c1.3,0,2-0.5,2.3-1.5l3.2-9.1c0.4-0.9,0-1.4-1.3-1.4H363
		c-12.2,0-20.7-7.5-16.6-18.7l4.3-12.7c3.4-10.2,13.7-18.6,26.8-18.6h67.3c-2,6-3.4,10.2-5.3,16.1c-0.8,2.5-2.5,3.6-4.9,3.6H370
		c-1.3,0-1.8,1.5-0.8,2.3l6,5.4l-0.9,2.9c-0.4,0.9,0.1,1.4,1.3,1.4h39.9c12,0,20.6,7.5,16.5,18.7l-4.3,12.7
		c-3.7,9.9-12.5,18.6-26,18.6H329.9z"/>
	<path class="st0" d="M463.2,161.9c-2.3-1.8-4.6-3.3-7.2-4.7c-1.3-0.8-0.7-2.5,0.6-2.5h36.5l-27.1,78.3c-0.8,2.3-2.5,3.5-4.9,3.5
		h-23.7C442,222.7,457.2,180.5,463.2,161.9z"/>
	<path class="st0" d="M491.1,217.9l15.3-44.5c3.4-10.2,13.4-18.6,26.7-18.6h51.8c12.2,0,20.2,7.5,16.5,18.6l-15.4,44.5
		c-3.4,9.9-13.2,18.7-26.7,18.7h-51.7C495.5,236.6,487,229.1,491.1,217.9z M520.7,216.8H557c1.3,0,2-0.5,2.2-1.5l13.7-39.3
		c0.4-1-0.1-1.5-1.3-1.5h-47.6c-1.3,0-1.9,1.5-0.9,2.3l7.2,6.5l-11,31.9C519,216.4,519.5,216.8,520.7,216.8z"/>
	<path class="st0" d="M596.9,236.6c3.6-11,19.4-55.5,26-74.7l-7.1-4.8c-1.3-0.8-0.6-2.3,0.7-2.3h36.4l25.6,53l2.2-17.2l12.4-35.8
		h27.5l-27.1,78.3c-0.8,2.3-2.5,3.5-4.9,3.5h-22.3c-2.5-5.3-8.7-17.2-14.3-28.2c-3.3-6.5-6.8-13.1-10.5-20.5
		c-0.5,1.1-16.6,47.4-15.7,45.1c-0.8,2.3-2.5,3.5-4.9,3.5H596.9z"/>
</g>
<g>
	<path class="st0" d="M117.6,73.8h29.2c2.5,0,4.1-1.2,4.9-3.5c1.5-4.6,4.4-12.4,5.7-16.3H63.3c-1.3,0-1.9,1.6-0.6,2.5l8,4.7
		c-0.4,1.3-4.9,11.8-5.1,12.6h34.1L78,135.9h23.9c2.5,0,4.1-1.2,4.9-3.5l17.2-49.7l-7.1-6.5C115.9,75.4,116.3,73.8,117.6,73.8z"/>
	<path class="st0" d="M163.2,54.1c-1.3,0-1.9,1.6-0.6,2.5c2.7,1.4,4.9,2.9,7.2,4.7c-6.1,18.6-21.3,60.8-26,74.7h23.7
		c2.5,0,4.1-1.2,4.9-3.5l27.1-78.3H163.2z"/>
	<path class="st0" d="M306.4,54.1c-1.5,0-2.8,0.6-3.7,1.6c-7.5,8-14.3,15.3-20.7,22c-10.9,11.6-22.6,23.9-26.1,27.7
		c0-1.9,0.6-10.5,0.6-12.4c-1.3-4.3-4.2-14-7-22.7l-4.9-16.3h-32.2c-1.3,0-2,1.5-0.7,2.3l7.1,4.8c-6.5,18.6-22.8,65-26.1,74.7h24
		c2.5,0,4.1-1.2,4.9-3.5l10.1-29l8,23.6h19.5c1.4,0,2.6-0.5,3.6-1.4l22.9-22.3l-11.2,32.6h23.7c2.5,0,4.1-1.2,4.9-3.5
		c1.3-3.9,26-74.1,27.1-78.3H306.4z"/>
	<path class="st0" d="M356.8,109.5l-4.3-4c-0.8-0.8-0.4-2.2,0.9-2.2h41.7c2.2,0,4.1-1.3,4.9-3.5l4.6-13.1h-40l1.8-4.8l-6.3-5.7
		c-0.9-0.8-0.5-2.3,0.8-2.3H422c2.2,0,4.1-1.3,4.9-3.5l5.6-16.3h-92.8c-1.3,0-1.8,1.5-0.7,2.3c2.9,1.9,6.4,4.2,6.8,4.8l-20.5,59.9
		c-2.6,7.2,2.9,14.8,10.5,14.8h64.7c2.5,0,4.1-1.2,4.9-3.5l5.7-16.3h-56.7L356.8,109.5z"/>
</g>
<g>
	<polygon class="st0" points="450,54.1 446.6,63.9 443.2,73.7 586.4,73.7 589.8,63.9 752.6,63.9 756,54.1 	"/>
	<polygon class="st0" points="432.4,104.8 575.6,104.8 579,95 741.8,95 745.2,85.2 439.2,85.2 	"/>
	<polygon class="st0" points="421.7,135.9 564.8,135.9 568.2,126.1 731,126.1 734.4,116.4 428.4,116.4 	"/>
</g>
</svg>
