<?xml version="1.0" encoding="utf-8"?>
<!-- Generator: Adobe Illustrator 30.0.0, SVG Export Plug-In . SVG Version: 9.03 Build 0)  -->
<svg version="1.0" id="Layer_1" xmlns="http://www.w3.org/2000/svg" xmlns:xlink="http://www.w3.org/1999/xlink" x="0px" y="0px"
	 viewBox="0 0 3202 1080" style="enable-background:new 0 0 3202 1080;" xml:space="preserve">
<style type="text/css">
	.st0{fill:#FFFFFF;}
</style>
<g>
	<g>
		<path class="st0" d="M146.4,913.2c13.4-39.7,76.8-231.6,103.6-307.6L223.9,588c-5.3-3.4-2.4-9.6,2.9-9.6h131.5l20.1,66.5
			c11.5,35.4,23.4,75.1,28.7,92.8c0,7.6-2.4,43-2.4,50.7c14.3-15.8,62.1-66,106.6-113.3c26.3-27.3,54-57.4,84.6-89.9
			c3.8-4.3,9.1-6.7,15.3-6.7h97.6c-4.8,17.2-105.7,304.6-110.9,320.4c-3.4,9.6-10,14.4-20.1,14.4h-97.1l45.9-133.4l-93.7,91.3
			c-4.3,3.8-9.1,5.7-14.8,5.7h-79.9l-32.5-96.6l-41.1,118.6c-3.3,9.6-10,14.4-20.1,14.4H146.4z"/>
		<path class="st0" d="M783.9,607.6c-9.6-7.2-18.6-13.4-29.6-19.1c-5.3-3.4-2.9-10,2.4-10h149.2L794.9,898.8
			c-3.4,9.6-10,14.4-20.1,14.4h-97.1C696.9,856.3,759,683.7,783.9,607.6z"/>
		<path class="st0" d="M877.2,913.2l28.2-67.9c3.4-8.1,10.5-13.4,19.6-13.4l232.9,0.5c5.3,0,8.1-1.9,9.6-6.2l12.9-37.3
			c1.4-3.8,0-5.7-5.3-5.7h-162.6c-49.7,0-84.6-30.6-67.9-76.5l17.7-52.1c13.9-41.6,55.9-76,109.5-76h275.4
			c-8.1,24.4-13.9,41.6-21.5,66c-3.4,10-10,14.8-20.1,14.8h-264.4c-5.3,0-7.2,6.2-3.4,9.6l24.4,22l-3.8,12c-1.4,3.8,0.5,5.7,5.3,5.7
			h163.1c49.3,0,84.1,30.6,67.4,76.5l-17.7,52.1c-15.3,40.6-51.2,76-106.2,76H877.2z"/>
		<path class="st0" d="M1318.6,913.2l28.2-67.9c3.4-8.1,10.5-13.4,19.6-13.4l232.9,0.5c5.3,0,8.1-1.9,9.6-6.2l12.9-37.3
			c1.4-3.8,0-5.7-5.3-5.7h-162.6c-49.7,0-84.6-30.6-67.9-76.5l17.7-52.1c13.9-41.6,55.9-76,109.5-76h275.4
			c-8.1,24.4-13.9,41.6-21.5,66c-3.4,10-10,14.8-20.1,14.8h-264.4c-5.3,0-7.2,6.2-3.4,9.6l24.4,22l-3.8,12c-1.4,3.8,0.5,5.7,5.3,5.7
			h163.1c49.3,0,84.2,30.6,67.4,76.5l-17.7,52.1c-15.3,40.6-51.2,76-106.2,76H1318.6z"/>
		<path class="st0" d="M1863.8,607.6c-9.6-7.2-18.6-13.4-29.6-19.1c-5.3-3.4-2.9-10,2.4-10h149.2l-111,320.4
			c-3.3,9.6-10,14.4-20.1,14.4h-97.1C1776.7,856.3,1838.9,683.7,1863.8,607.6z"/>
		<path class="st0" d="M1977.6,836.7l62.6-182.2c13.9-41.6,55-76,109-76h211.8c49.7,0,82.7,30.6,67.4,76l-63.1,182.2
			c-13.9,40.7-54,76.5-109,76.5H2045C1995.8,913.2,1960.9,882.6,1977.6,836.7z M2098.6,832.4h148.7c5.3,0,8.1-1.9,9.1-6.2l56-160.7
			c1.4-4.3-0.5-6.2-5.3-6.2h-194.6c-5.3,0-7.6,6.2-3.8,9.6l29.6,26.8l-45,130.6C2091.9,830.5,2093.8,832.4,2098.6,832.4z"/>
		<path class="st0" d="M2410.4,913.2c14.8-45,79.4-227.1,106.2-305.6l-29.2-19.6c-5.3-3.4-2.4-9.6,2.9-9.6H2639l104.7,216.6
			l9.1-70.3l50.7-146.3h112.4l-110.9,320.4c-3.4,9.6-10.1,14.4-20.1,14.4h-91.3c-10-21.5-35.4-70.3-58.3-115.2
			c-13.4-26.8-27.7-53.5-43-83.7c-1.9,4.3-67.9,193.7-64.1,184.6c-3.4,9.6-10,14.4-20.1,14.4H2410.4z"/>
	</g>
	<g>
		<path class="st0" d="M450.3,247.6h119.6c10,0,16.7-4.8,20.1-14.4c6.2-18.6,18.2-50.7,23.4-66.5H227.9c-5.3,0-7.7,6.7-2.4,10
			l32.5,19.1c-1.4,5.3-20.1,48.3-21,51.6h127.1l-83,253.9h104.6c10,0,16.7-4.8,20.1-14.4L476.1,284L447,257.2
			C443.1,253.8,445,247.6,450.3,247.6z"/>
		<path class="st0" d="M636.8,166.8c-5.3,0-7.6,6.7-2.4,10c11,5.7,20.1,12,29.6,19.1c-24.9,76-87,248.7-106.2,305.6H655
			c10,0,16.7-4.8,20.1-14.4L786,166.8H636.8z"/>
		<path class="st0" d="M1222.2,166.8c-6.2,0-11.5,2.4-15.3,6.7c-30.6,32.5-58.3,62.6-84.6,89.9c-44.5,47.4-92.3,97.6-106.6,113.3
			c0-7.6,2.4-43,2.4-50.7c-5.3-17.7-17.2-57.4-28.7-92.8l-20.1-66.5H837.7c-5.3,0-8.1,6.2-2.9,9.6L864,196
			c-26.8,76-93.2,265.9-106.6,305.6h98c10,0,16.7-4.8,20.1-14.4l41.1-118.6l32.5,96.6h79.9c5.7,0,10.5-1.9,14.8-5.7l93.7-91.3
			l-45.9,133.4h97.1c10,0,16.7-4.8,20.1-14.4c5.3-15.8,106.2-303.2,110.9-320.4H1222.2z"/>
		<path class="st0" d="M1428.3,393.5l-17.7-16.3c-3.4-3.3-1.4-9.1,3.8-9.1h170.7c9.1,0,16.7-5.3,20.1-14.4l18.6-53.5h-163.5
			l7.2-19.6l-25.8-23.4c-3.8-3.4-1.9-9.6,3.4-9.6h250.1c9.1,0,16.7-5.3,20.1-14.4l23-66.5h-379.7c-5.3,0-7.2,6.2-2.9,9.6
			c11.9,7.6,26.3,17.2,27.7,19.6l-83.7,244.8c-10.5,29.6,12,60.7,43,60.7h264.4c10,0,16.7-4.8,20.1-14.4l23.4-66.5h-231.9
			L1428.3,393.5z"/>
	</g>
	<g>
		<polygon class="st0" points="1809.7,166.8 1795.7,206.8 1781.8,247 2367.2,247 2381.2,206.8 3041.6,206.8 3055.5,166.8 		"/>
		<polygon class="st0" points="1737.8,374.1 2323.1,374.1 2337,334.2 2996.4,334.2 3010.2,294.2 1765.5,294.2 		"/>
		<polygon class="st0" points="1693.7,501.5 2278.9,501.5 2292.9,461.5 2954,461.5 2967.8,421.5 1721.4,421.5 		"/>
	</g>
</g>
</svg>
