<?xml version="1.0" encoding="utf-8"?>
<!-- Generator: Adobe Illustrator 30.0.0, SVG Export Plug-In . SVG Version: 9.03 Build 0)  -->
<svg version="1.0" id="Layer_1" xmlns="http://www.w3.org/2000/svg" xmlns:xlink="http://www.w3.org/1999/xlink" x="0px" y="0px"
	 viewBox="0 0 90 90" style="enable-background:new 0 0 90 90;" xml:space="preserve">
<style type="text/css">
	.st0{fill:url(#SVGID_1_);}
</style>
<linearGradient id="SVGID_1_" gradientUnits="userSpaceOnUse" x1="11.3363" y1="45.0002" x2="78.6636" y2="45.0002">
	<stop  offset="0" style="stop-color:#F9A41A"/>
	<stop  offset="0.533" style="stop-color:#EF4B23"/>
	<stop  offset="1" style="stop-color:#C7451E"/>
</linearGradient>
<path class="st0" d="M63.9,62.8L57,52.5c-0.1-0.2-0.4-0.3-0.6-0.3h-3.8c-0.2,0-0.5,0.1-0.6,0.3l-2,3.2c-0.2,0.2-0.2,0.5,0,0.8
	c0.1,0.2,0.4,0.4,0.6,0.4h3.9l1.6,2.4H33.7l6.2-10l4.5,7.3l0,0l0,0c0.1,0.2,0.4,0.3,0.6,0.3c0.3,0,0.5-0.1,0.6-0.3l18.2-29.3l0-0.1
	c0.1-0.2,0.1-0.5,0-0.7c-0.1-0.2-0.4-0.4-0.6-0.4H26.8c0,0,0,0,0,0h0c-0.3,0-0.5,0.1-0.6,0.4c-0.1,0.2-0.1,0.5,0,0.7l6.7,10.2
	c0.1,0.2,0.4,0.3,0.6,0.3h3.8c0.2,0,0.5-0.1,0.6-0.3l2.2-3.2c0.2-0.2,0.2-0.5,0-0.8c-0.1-0.2-0.4-0.4-0.6-0.4h-4l-1.5-2.4h22.4
	l-6.2,10l-4.5-7.3c0,0,0,0,0,0l0,0c-0.1-0.2-0.4-0.3-0.6-0.3c0,0,0,0,0,0c-0.3,0-0.5,0.1-0.6,0.3L26.2,62.8h0l0,0.1
	c-0.1,0.2-0.1,0.5,0,0.7c0.1,0.2,0.4,0.4,0.6,0.4h36.5h0c0.3,0,0.5-0.1,0.6-0.4C64,63.3,64,63,63.9,62.8z M42.5,44.9l2.4-4l2.5,4.1
	L45,49L42.5,44.9z M45,78.7c-18.6,0-33.7-15.1-33.7-33.7c0-18.6,15.1-33.7,33.7-33.7c18.6,0,33.7,15.1,33.7,33.7
	C78.7,63.6,63.6,78.7,45,78.7z M45,15.8c-16.1,0-29.2,13.1-29.2,29.2c0,16.1,13.1,29.2,29.2,29.2S74.2,61.1,74.2,45
	C74.2,28.9,61.1,15.8,45,15.8z"/>
</svg>
