<?xml version="1.0" encoding="UTF-8"?>
<svg id="Layer_1" data-name="Layer 1" xmlns="http://www.w3.org/2000/svg" viewBox="0 0 1978.73 338.82">
  <defs>
    <style>
      .cls-1 {
        fill: #fff;
      }
    </style>
  </defs>
  <path class="cls-1" d="M65.56,281.07c8.94-26.48,53.28-153.12,71.14-203.85l-19.46-13.08c-3.51-2.24-1.59-6.38,1.92-6.38h87.73l13.4,44.34c7.66,23.61,15.63,50.09,19.14,61.89,0,5.1-1.59,28.71-1.59,33.82,9.57-10.52,41.46-44.02,71.13-75.61,17.55-18.18,36.05-38.28,56.47-59.97,2.54-2.86,6.06-4.46,10.2-4.46h65.09c-3.2,11.48-70.51,203.21-74.01,213.73-2.24,6.38-6.7,9.58-13.4,9.58h-64.77l30.63-89.01-62.53,60.93c-2.87,2.56-6.06,3.84-9.89,3.84h-53.27l-21.7-64.45-27.44,79.11c-2.23,6.38-6.7,9.58-13.4,9.58h-65.4ZM490.86,77.21c-6.38-4.78-12.44-8.94-19.78-12.76-3.52-2.24-1.92-6.7,1.59-6.7h99.54l-74.01,213.73c-2.24,6.38-6.7,9.58-13.4,9.58h-64.77c12.76-37.96,54.23-153.12,70.83-203.85ZM553.08,281.07l18.82-45.3c2.24-5.43,7.02-8.94,13.08-8.94l155.36.32c3.52,0,5.43-1.28,6.38-4.14l8.62-24.89c.96-2.54,0-3.82-3.5-3.82h-108.47c-33.19,0-56.47-20.42-45.31-51.05l11.81-34.77c9.24-27.76,37.32-50.72,73.05-50.72h183.75c-5.42,16.26-9.26,27.76-14.36,44.02-2.24,6.7-6.7,9.9-13.4,9.9h-176.42c-3.52,0-4.78,4.14-2.24,6.38l16.27,14.68-2.56,7.98c-.96,2.54.32,3.82,3.52,3.82h108.78c32.86,0,56.14,20.42,44.98,51.05l-11.8,34.76c-10.21,27.12-34.14,50.73-70.83,50.73h-195.55ZM847.56,281.07l18.82-45.3c2.24-5.43,7.02-8.94,13.08-8.94l155.36.32c3.52,0,5.42-1.28,6.38-4.14l8.62-24.89c.96-2.54,0-3.82-3.52-3.82h-108.45c-33.19,0-56.47-20.42-45.31-51.05l11.81-34.77c9.24-27.76,37.32-50.72,73.05-50.72h183.75c-5.43,16.26-9.26,27.76-14.36,44.02-2.24,6.7-6.7,9.9-13.4,9.9h-176.42c-3.52,0-4.78,4.14-2.24,6.38l16.26,14.68-2.54,7.98c-.96,2.54.32,3.82,3.5,3.82h108.78c32.87,0,56.15,20.42,44.99,51.05l-11.8,34.76c-10.21,27.12-34.14,50.73-70.83,50.73h-195.55ZM1211.27,77.21c-6.38-4.78-12.44-8.94-19.78-12.76-3.5-2.24-1.91-6.7,1.6-6.7h99.54l-74.02,213.73c-2.22,6.38-6.7,9.58-13.4,9.58h-64.75c12.76-37.96,54.23-153.12,70.81-203.85ZM1543.06,57.76h-141.32c-36.05,0-63.49,22.96-72.75,50.72l-41.78,121.54c-11.17,30.63,12.12,51.05,44.98,51.05h141c36.69,0,63.49-23.92,72.74-51.05l42.1-121.54c10.21-30.3-11.8-50.72-44.98-50.72ZM1510.52,115.81l-37.33,107.2c-.64,2.86-2.55,4.14-6.06,4.14h-99.21c-3.2,0-4.47-1.28-3.52-4.14l29.99-87.1-19.78-17.86c-2.56-2.24-.96-6.38,2.55-6.38h129.84c3.2,0,4.47,1.28,3.52,4.14ZM1575.95,281.07c9.9-29.99,52.95-151.54,70.83-203.85l-19.46-13.08c-3.52-2.24-1.6-6.38,1.91-6.38h99.22l69.87,144.52,6.06-46.91,33.82-97.61h74.97l-74.01,213.73c-2.24,6.38-6.71,9.58-13.41,9.58h-60.93c-6.7-14.36-23.6-46.89-38.92-76.89-8.94-17.86-18.5-35.72-28.71-55.83-1.27,2.88-45.3,129.21-42.74,123.14-2.24,6.38-6.7,9.58-13.4,9.58h-65.09Z"/>
</svg>